<svg width="24" height="27" viewBox="0 0 24 27" fill="none" xmlns="http://www.w3.org/2000/svg">
<path d="M14.9223 2.12643L16.4571 2.11421L16.4452 0.778063C16.4452 0.570308 16.3615 0.3707 16.2179 0.22405C16.0704 0.0814725 15.8751 0 15.6718 0L8.10499 0.0611044C7.90565 0.0611044 7.70632 0.146651 7.5628 0.293301C7.41927 0.439952 7.33954 0.643633 7.34353 0.851388L7.35549 2.18754L8.89037 2.17532L8.88638 1.6213L14.9183 1.57242L14.9223 2.12643Z" fill="#EB5757"/>
<path d="M1.83391 7.21846C1.59072 7.22253 1.36347 7.33252 1.21198 7.52398C1.06048 7.71544 0.996697 7.968 1.04055 8.20835L4.43723 26.3238C4.51298 26.7189 4.85185 27.0041 5.24254 27L18.9688 26.89C19.3595 26.8859 19.6944 26.6008 19.7661 26.2056L23.0073 8.03726C23.0512 7.79284 22.9834 7.54027 22.8279 7.35289C22.6724 7.1655 22.4412 7.05551 22.198 7.05551L1.83391 7.21846ZM7.6864 25.7698C7.24387 25.8431 6.82926 25.5335 6.76148 25.0854L4.42926 10.1515C4.35749 9.6993 4.66048 9.27564 5.09902 9.20639C5.54155 9.13306 5.95617 9.44266 6.02394 9.89076L8.35617 24.8247C8.42793 25.2728 8.12892 25.6964 7.6864 25.7698ZM12.1595 25.8268C11.713 25.8309 11.3462 25.4642 11.3462 25.008L11.2306 9.88668C11.2266 9.43044 11.5854 9.05566 12.0319 9.05566C12.4784 9.05159 12.8452 9.41822 12.8492 9.87446L12.9648 24.9958C12.9648 25.452 12.606 25.8227 12.1595 25.8268ZM19.6465 10.0293L17.5415 24.9958C17.4778 25.4479 17.0671 25.7616 16.6246 25.6964C16.1821 25.6313 15.8751 25.2117 15.9389 24.7595L18.0439 9.79299C18.1077 9.34082 18.5183 9.02715 18.9608 9.09233C19.4033 9.1575 19.7103 9.57709 19.6465 10.0293Z" fill="#EB5757"/>
<path d="M0.0199336 6.44449L24 6.25303L23.9801 3.75589L21.7555 3.77219L21.7475 2.46048C21.7475 2.35864 21.7037 2.2568 21.6319 2.18755C21.5601 2.11422 21.4605 2.07349 21.3608 2.07349L16.4532 2.11422L14.9183 2.12644L8.89037 2.17533L7.35548 2.18755L2.78272 2.22421C2.68306 2.22421 2.58339 2.26902 2.51561 2.34235C2.44385 2.41567 2.40399 2.51751 2.40399 2.61935L2.41196 3.93106L0 3.94735L0.0199336 6.44449Z" fill="#A3A9AF"/>
<path d="M12.0279 9.05567C11.5814 9.05974 11.2226 9.43044 11.2266 9.88669L11.3422 25.008C11.3462 25.4642 11.709 25.8309 12.1555 25.8268C12.602 25.8227 12.9608 25.452 12.9568 24.9958L12.8412 9.87447C12.8412 9.41822 12.4784 9.05159 12.0279 9.05567Z" fill="#A3A9AF"/>
<path d="M18.0439 9.793L15.9389 24.7595C15.8751 25.2117 16.1821 25.6313 16.6246 25.6964C17.0672 25.7616 17.4778 25.448 17.5416 24.9958L19.6466 10.0293C19.7104 9.5771 19.4034 9.15752 18.9609 9.09234C18.5183 9.02716 18.1077 9.34083 18.0439 9.793Z" fill="#A3A9AF"/>
<path d="M5.09898 9.20639C4.65645 9.27972 4.35745 9.6993 4.42921 10.1515L6.76144 25.0854C6.82921 25.5335 7.24782 25.8431 7.68635 25.7698C8.12888 25.6964 8.42788 25.2728 8.35612 24.8247L6.0239 9.89076C5.95612 9.43859 5.5415 9.13307 5.09898 9.20639Z" fill="#A3A9AF"/>
</svg>
