<svg width="40" height="40" viewBox="0 0 40 40" fill="none" xmlns="http://www.w3.org/2000/svg">
<path d="M32.4001 25.1012L30.7099 22.5623C30.355 21.9965 30.0339 20.9259 30.0339 20.2988V16.4294C30.0339 12.8353 27.7016 9.73057 24.3382 8.27763C23.4594 6.87057 21.8369 5.99881 19.9778 5.99881C18.1356 5.99881 16.4793 6.90116 15.6004 8.32352C12.3047 9.80705 10.023 12.8812 10.023 16.4294V20.2988C10.023 20.9259 9.70193 21.9965 9.34701 22.547L7.64 25.1012C6.96396 26.1259 6.81185 27.2576 7.23437 28.2976C7.64 29.3223 8.60336 30.1176 9.85404 30.5C13.1328 31.5094 16.5807 31.9988 20.0285 31.9988C23.4763 31.9988 26.9241 31.5094 30.2029 30.5153C31.386 30.1635 32.2986 29.3529 32.7381 28.2976C33.1775 27.2423 33.0592 26.08 32.4001 25.1012Z" fill="#2D87BF"/>
<path d="M24.7149 33.3501C24.015 35.283 22.1653 36.6661 19.9991 36.6661C18.6826 36.6661 17.3829 36.1329 16.4664 35.1831C15.9331 34.6832 15.5332 34.0166 15.2999 33.3334C15.5166 33.3667 15.7332 33.3834 15.9665 33.4167C16.3497 33.4667 16.7497 33.5167 17.1496 33.55C18.0994 33.6333 19.0659 33.6833 20.0324 33.6833C20.9822 33.6833 21.932 33.6333 22.8652 33.55C23.2151 33.5167 23.5651 33.5 23.8983 33.45C24.165 33.4167 24.4316 33.3834 24.7149 33.3501Z" fill="#2D87BF"/>
</svg>
