<svg width="21" height="20" viewBox="0 0 21 20" fill="none" xmlns="http://www.w3.org/2000/svg">
<path d="M18.0967 7.2183C16.287 7.2183 15.5471 5.93854 16.447 4.36882C16.9669 3.45899 16.6569 2.2992 15.7471 1.7793L14.0174 0.789482C13.2276 0.319569 12.2078 0.599517 11.7378 1.38937L11.6279 1.57934C10.728 3.14905 9.2483 3.14905 8.33847 1.57934L8.22849 1.38937C7.77857 0.599517 6.75876 0.319569 5.9689 0.789482L4.23922 1.7793C3.32939 2.2992 3.01945 3.46899 3.53935 4.37882C4.44918 5.93854 3.70932 7.2183 1.89965 7.2183C0.859842 7.2183 0 8.06814 0 9.11795L0 10.8776C0 11.9174 0.849844 12.7773 1.89965 12.7773C3.70932 12.7773 4.44918 14.057 3.53935 15.6268C3.01945 16.5366 3.32939 17.6964 4.23922 18.2163L5.9689 19.2061C6.75876 19.676 7.77857 19.3961 8.24848 18.6062L8.35846 18.4162C9.2583 16.8465 10.738 16.8465 11.6479 18.4162L11.7578 18.6062C12.2278 19.3961 13.2476 19.676 14.0374 19.2061L15.7671 18.2163C16.6769 17.6964 16.9869 16.5266 16.467 15.6268C15.5571 14.057 16.297 12.7773 18.1067 12.7773C19.1465 12.7773 20.0063 11.9274 20.0063 10.8776V9.11795C19.9963 8.07814 19.1465 7.2183 18.0967 7.2183ZM9.99816 13.2472C8.20849 13.2472 6.74876 11.7875 6.74876 9.99779C6.74876 8.20812 8.20849 6.74839 9.99816 6.74839C11.7878 6.74839 13.2476 8.20812 13.2476 9.99779C13.2476 11.7875 11.7878 13.2472 9.99816 13.2472Z" fill="#E0E0E0"/>
</svg>
