<svg width="18" height="20" viewBox="0 0 18 20" fill="none" xmlns="http://www.w3.org/2000/svg">
<path d="M12.779 -0.000640869L5.21902 -0.000640869C1.43902 -0.000640869 0.499023 1.00936 0.499023 5.03936L0.499023 16.2994C0.499023 18.9594 1.95902 19.5894 3.72902 17.6894L3.73902 17.6794C4.55902 16.8094 5.80902 16.8794 6.51902 17.8294L7.52902 19.1794C8.33902 20.2494 9.64902 20.2494 10.459 19.1794L11.469 17.8294C12.189 16.8694 13.439 16.7994 14.259 17.6794C16.039 19.5794 17.489 18.9494 17.489 16.2894V5.03936C17.499 1.00936 16.559 -0.000640869 12.779 -0.000640869ZM11.749 8.74936H6.24902C5.83902 8.74936 5.49902 8.40936 5.49902 7.99936C5.49902 7.58936 5.83902 7.24936 6.24902 7.24936L11.749 7.24936C12.159 7.24936 12.499 7.58936 12.499 7.99936C12.499 8.40936 12.159 8.74936 11.749 8.74936Z" fill="#2D87BF"/>
</svg>
